<<<<<<< HEAD
<mxfile host="app.diagrams.net" agent="Mozilla/5.0 (Windows NT 10.0; Win64; x64) AppleWebKit/537.36 (KHTML, like Gecko) Chrome/134.0.0.0 Safari/537.36" version="26.1.0">
  <diagram name="Página-1" id="fOvhPbwIbBUh8tQNjxSP">
    <mxGraphModel dx="838" dy="406" grid="1" gridSize="10" guides="1" tooltips="1" connect="1" arrows="1" fold="1" page="1" pageScale="1" pageWidth="827" pageHeight="1169" math="0" shadow="0">
=======
<mxfile host="app.diagrams.net" agent="Mozilla/5.0 (Windows NT 10.0; Win64; x64) AppleWebKit/537.36 (KHTML, like Gecko) Chrome/132.0.0.0 Safari/537.36 OPR/117.0.0.0" version="26.1.1">
  <diagram name="Página-1" id="fOvhPbwIbBUh8tQNjxSP">
    <mxGraphModel dx="1432" dy="738" grid="1" gridSize="10" guides="1" tooltips="1" connect="1" arrows="1" fold="1" page="1" pageScale="1" pageWidth="827" pageHeight="1169" math="0" shadow="0">
>>>>>>> b406d7174e945c6b9ee83977bb2de9c40d8d7ac0
      <root>
        <mxCell id="0" />
        <mxCell id="1" parent="0" />
        <mxCell id="fB5Ja7sIE4Y7Uw1ybMiM-1" value="Usuário" style="swimlane;horizontal=0;whiteSpace=wrap;html=1;" parent="1" vertex="1">
          <mxGeometry x="140" y="130" width="1590" height="200" as="geometry" />
        </mxCell>
<<<<<<< HEAD
=======
        <mxCell id="QluinG8LgwqpGFDLWB3--1" style="edgeStyle=orthogonalEdgeStyle;rounded=0;orthogonalLoop=1;jettySize=auto;html=1;entryX=0;entryY=0.5;entryDx=0;entryDy=0;" edge="1" parent="fB5Ja7sIE4Y7Uw1ybMiM-1" source="fB5Ja7sIE4Y7Uw1ybMiM-3" target="fB5Ja7sIE4Y7Uw1ybMiM-10">
          <mxGeometry relative="1" as="geometry" />
        </mxCell>
>>>>>>> b406d7174e945c6b9ee83977bb2de9c40d8d7ac0
        <mxCell id="fB5Ja7sIE4Y7Uw1ybMiM-3" value="" style="ellipse;whiteSpace=wrap;html=1;aspect=fixed;fillColor=#d5e8d4;strokeColor=#82b366;" parent="fB5Ja7sIE4Y7Uw1ybMiM-1" vertex="1">
          <mxGeometry x="55" y="85" width="30" height="30" as="geometry" />
        </mxCell>
        <mxCell id="fB5Ja7sIE4Y7Uw1ybMiM-4" value="Compra um lote de cartas" style="text;html=1;align=center;verticalAlign=middle;whiteSpace=wrap;rounded=0;" parent="fB5Ja7sIE4Y7Uw1ybMiM-1" vertex="1">
          <mxGeometry x="40" y="130" width="60" height="30" as="geometry" />
        </mxCell>
        <mxCell id="fB5Ja7sIE4Y7Uw1ybMiM-52" value="" style="ellipse;whiteSpace=wrap;html=1;aspect=fixed;fillColor=#f8cecc;strokeColor=#b85450;" parent="fB5Ja7sIE4Y7Uw1ybMiM-1" vertex="1">
          <mxGeometry x="1470" y="75" width="50" height="50" as="geometry" />
        </mxCell>
        <mxCell id="fB5Ja7sIE4Y7Uw1ybMiM-64" style="edgeStyle=orthogonalEdgeStyle;rounded=0;orthogonalLoop=1;jettySize=auto;html=1;entryX=0;entryY=0.5;entryDx=0;entryDy=0;" parent="fB5Ja7sIE4Y7Uw1ybMiM-1" source="fB5Ja7sIE4Y7Uw1ybMiM-54" target="fB5Ja7sIE4Y7Uw1ybMiM-52" edge="1">
          <mxGeometry relative="1" as="geometry" />
        </mxCell>
        <mxCell id="fB5Ja7sIE4Y7Uw1ybMiM-54" value="Finaliza o cadastro da carta no sistema" style="whiteSpace=wrap;html=1;rounded=1;" parent="fB5Ja7sIE4Y7Uw1ybMiM-1" vertex="1">
          <mxGeometry x="1280" y="70" width="120" height="60" as="geometry" />
        </mxCell>
        <mxCell id="fB5Ja7sIE4Y7Uw1ybMiM-55" value="Fim" style="text;html=1;align=center;verticalAlign=middle;whiteSpace=wrap;rounded=0;" parent="fB5Ja7sIE4Y7Uw1ybMiM-1" vertex="1">
          <mxGeometry x="1465" y="130" width="60" height="30" as="geometry" />
        </mxCell>
<<<<<<< HEAD
        <mxCell id="fB5Ja7sIE4Y7Uw1ybMiM-51" value="Insere o preço da carta" style="whiteSpace=wrap;html=1;rounded=1;" parent="fB5Ja7sIE4Y7Uw1ybMiM-1" vertex="1">
          <mxGeometry x="1110" y="70" width="120" height="60" as="geometry" />
        </mxCell>
        <mxCell id="fB5Ja7sIE4Y7Uw1ybMiM-50" value="" style="edgeStyle=orthogonalEdgeStyle;rounded=0;orthogonalLoop=1;jettySize=auto;html=1;" parent="fB5Ja7sIE4Y7Uw1ybMiM-1" source="fB5Ja7sIE4Y7Uw1ybMiM-51" target="fB5Ja7sIE4Y7Uw1ybMiM-54" edge="1">
          <mxGeometry relative="1" as="geometry" />
=======
        <mxCell id="fB5Ja7sIE4Y7Uw1ybMiM-10" value="Seleciona entre &quot;Carta Individual ou Pacote?˜" style="rounded=1;whiteSpace=wrap;html=1;" parent="fB5Ja7sIE4Y7Uw1ybMiM-1" vertex="1">
          <mxGeometry x="250" y="70" width="120" height="60" as="geometry" />
>>>>>>> b406d7174e945c6b9ee83977bb2de9c40d8d7ac0
        </mxCell>
        <mxCell id="fB5Ja7sIE4Y7Uw1ybMiM-2" value="Sistema" style="swimlane;horizontal=0;whiteSpace=wrap;html=1;" parent="1" vertex="1">
          <mxGeometry x="140" y="330" width="1590" height="270" as="geometry" />
        </mxCell>
<<<<<<< HEAD
        <mxCell id="fB5Ja7sIE4Y7Uw1ybMiM-13" value="" style="edgeStyle=orthogonalEdgeStyle;rounded=0;orthogonalLoop=1;jettySize=auto;html=1;" parent="fB5Ja7sIE4Y7Uw1ybMiM-2" source="fB5Ja7sIE4Y7Uw1ybMiM-10" edge="1">
          <mxGeometry relative="1" as="geometry">
            <mxPoint x="250" y="60" as="targetPoint" />
          </mxGeometry>
        </mxCell>
        <mxCell id="fB5Ja7sIE4Y7Uw1ybMiM-10" value="Seleciona entre &quot;Carta Individual ou Pacote?˜" style="rounded=1;whiteSpace=wrap;html=1;" parent="fB5Ja7sIE4Y7Uw1ybMiM-2" vertex="1">
          <mxGeometry x="100" y="30" width="120" height="60" as="geometry" />
        </mxCell>
=======
>>>>>>> b406d7174e945c6b9ee83977bb2de9c40d8d7ac0
        <mxCell id="fB5Ja7sIE4Y7Uw1ybMiM-38" value="" style="edgeStyle=orthogonalEdgeStyle;rounded=0;orthogonalLoop=1;jettySize=auto;html=1;" parent="fB5Ja7sIE4Y7Uw1ybMiM-2" source="fB5Ja7sIE4Y7Uw1ybMiM-42" target="fB5Ja7sIE4Y7Uw1ybMiM-44" edge="1">
          <mxGeometry relative="1" as="geometry" />
        </mxCell>
        <mxCell id="fB5Ja7sIE4Y7Uw1ybMiM-39" value="Carta individual" style="edgeLabel;html=1;align=center;verticalAlign=middle;resizable=0;points=[];" parent="fB5Ja7sIE4Y7Uw1ybMiM-38" vertex="1" connectable="0">
          <mxGeometry x="-0.2695" y="-2" relative="1" as="geometry">
            <mxPoint x="8" as="offset" />
          </mxGeometry>
        </mxCell>
        <mxCell id="fB5Ja7sIE4Y7Uw1ybMiM-42" value="Carta individual&amp;nbsp;&lt;div&gt;ou pacote?&lt;/div&gt;" style="rhombus;whiteSpace=wrap;html=1;rounded=1;" parent="fB5Ja7sIE4Y7Uw1ybMiM-2" vertex="1">
          <mxGeometry x="250" width="120" height="120" as="geometry" />
        </mxCell>
        <mxCell id="fB5Ja7sIE4Y7Uw1ybMiM-43" value="" style="edgeStyle=orthogonalEdgeStyle;rounded=0;orthogonalLoop=1;jettySize=auto;html=1;" parent="fB5Ja7sIE4Y7Uw1ybMiM-2" source="fB5Ja7sIE4Y7Uw1ybMiM-44" target="fB5Ja7sIE4Y7Uw1ybMiM-47" edge="1">
          <mxGeometry relative="1" as="geometry" />
        </mxCell>
        <mxCell id="fB5Ja7sIE4Y7Uw1ybMiM-44" value="Verifica a condição da carta com sistema OCR" style="whiteSpace=wrap;html=1;rounded=1;" parent="fB5Ja7sIE4Y7Uw1ybMiM-2" vertex="1">
          <mxGeometry x="510" y="30" width="120" height="60" as="geometry" />
        </mxCell>
        <mxCell id="fB5Ja7sIE4Y7Uw1ybMiM-46" value="" style="edgeStyle=orthogonalEdgeStyle;rounded=0;orthogonalLoop=1;jettySize=auto;html=1;" parent="fB5Ja7sIE4Y7Uw1ybMiM-2" source="fB5Ja7sIE4Y7Uw1ybMiM-47" target="fB5Ja7sIE4Y7Uw1ybMiM-49" edge="1">
          <mxGeometry relative="1" as="geometry" />
        </mxCell>
        <mxCell id="fB5Ja7sIE4Y7Uw1ybMiM-47" value="Insere dados básicos da carta no sistema" style="whiteSpace=wrap;html=1;rounded=1;" parent="fB5Ja7sIE4Y7Uw1ybMiM-2" vertex="1">
          <mxGeometry x="710" y="30" width="120" height="60" as="geometry" />
        </mxCell>
<<<<<<< HEAD
        <mxCell id="fB5Ja7sIE4Y7Uw1ybMiM-49" value="Registra a carta a partir do banco de dados da liga" style="whiteSpace=wrap;html=1;rounded=1;" parent="fB5Ja7sIE4Y7Uw1ybMiM-2" vertex="1">
          <mxGeometry x="910" y="30" width="120" height="60" as="geometry" />
        </mxCell>
=======
        <mxCell id="fB5Ja7sIE4Y7Uw1ybMiM-48" value="" style="edgeStyle=orthogonalEdgeStyle;rounded=0;orthogonalLoop=1;jettySize=auto;html=1;" parent="fB5Ja7sIE4Y7Uw1ybMiM-2" source="fB5Ja7sIE4Y7Uw1ybMiM-49" target="fB5Ja7sIE4Y7Uw1ybMiM-51" edge="1">
          <mxGeometry relative="1" as="geometry" />
        </mxCell>
        <mxCell id="fB5Ja7sIE4Y7Uw1ybMiM-49" value="Registra a carta a partir do banco de dados da liga" style="whiteSpace=wrap;html=1;rounded=1;" parent="fB5Ja7sIE4Y7Uw1ybMiM-2" vertex="1">
          <mxGeometry x="910" y="30" width="120" height="60" as="geometry" />
        </mxCell>
        <mxCell id="fB5Ja7sIE4Y7Uw1ybMiM-51" value="Insere o preço da carta" style="whiteSpace=wrap;html=1;rounded=1;" parent="fB5Ja7sIE4Y7Uw1ybMiM-2" vertex="1">
          <mxGeometry x="1110" y="30" width="120" height="60" as="geometry" />
        </mxCell>
>>>>>>> b406d7174e945c6b9ee83977bb2de9c40d8d7ac0
        <mxCell id="fB5Ja7sIE4Y7Uw1ybMiM-56" value="" style="edgeStyle=orthogonalEdgeStyle;rounded=0;orthogonalLoop=1;jettySize=auto;html=1;" parent="fB5Ja7sIE4Y7Uw1ybMiM-2" source="fB5Ja7sIE4Y7Uw1ybMiM-57" target="fB5Ja7sIE4Y7Uw1ybMiM-59" edge="1">
          <mxGeometry relative="1" as="geometry" />
        </mxCell>
        <mxCell id="fB5Ja7sIE4Y7Uw1ybMiM-59" value="Cadastra as cartas pertencentes a coleção" style="whiteSpace=wrap;html=1;rounded=1;" parent="fB5Ja7sIE4Y7Uw1ybMiM-2" vertex="1">
          <mxGeometry x="460" y="190" width="120" height="60" as="geometry" />
        </mxCell>
        <mxCell id="fB5Ja7sIE4Y7Uw1ybMiM-62" value="" style="edgeStyle=orthogonalEdgeStyle;rounded=0;orthogonalLoop=1;jettySize=auto;html=1;" parent="fB5Ja7sIE4Y7Uw1ybMiM-2" source="fB5Ja7sIE4Y7Uw1ybMiM-42" target="fB5Ja7sIE4Y7Uw1ybMiM-57" edge="1">
          <mxGeometry relative="1" as="geometry">
            <mxPoint x="490" y="560" as="targetPoint" />
            <mxPoint x="450" y="450" as="sourcePoint" />
          </mxGeometry>
        </mxCell>
        <mxCell id="fB5Ja7sIE4Y7Uw1ybMiM-63" value="Pacote" style="edgeLabel;html=1;align=center;verticalAlign=middle;resizable=0;points=[];" parent="fB5Ja7sIE4Y7Uw1ybMiM-62" vertex="1" connectable="0">
          <mxGeometry x="-0.2938" y="2" relative="1" as="geometry">
            <mxPoint x="-2" as="offset" />
          </mxGeometry>
        </mxCell>
        <mxCell id="fB5Ja7sIE4Y7Uw1ybMiM-57" value="Reconhece os dados do pacote com sistema OCR" style="whiteSpace=wrap;html=1;rounded=1;" parent="fB5Ja7sIE4Y7Uw1ybMiM-2" vertex="1">
          <mxGeometry x="250" y="190" width="120" height="60" as="geometry" />
        </mxCell>
<<<<<<< HEAD
        <mxCell id="fB5Ja7sIE4Y7Uw1ybMiM-11" style="edgeStyle=orthogonalEdgeStyle;rounded=0;orthogonalLoop=1;jettySize=auto;html=1;entryX=0.5;entryY=0;entryDx=0;entryDy=0;" parent="1" source="fB5Ja7sIE4Y7Uw1ybMiM-3" target="fB5Ja7sIE4Y7Uw1ybMiM-10" edge="1">
=======
        <mxCell id="fB5Ja7sIE4Y7Uw1ybMiM-50" value="" style="edgeStyle=orthogonalEdgeStyle;rounded=0;orthogonalLoop=1;jettySize=auto;html=1;" parent="1" source="fB5Ja7sIE4Y7Uw1ybMiM-51" target="fB5Ja7sIE4Y7Uw1ybMiM-54" edge="1">
>>>>>>> b406d7174e945c6b9ee83977bb2de9c40d8d7ac0
          <mxGeometry relative="1" as="geometry" />
        </mxCell>
        <mxCell id="fB5Ja7sIE4Y7Uw1ybMiM-58" value="" style="edgeStyle=orthogonalEdgeStyle;rounded=0;orthogonalLoop=1;jettySize=auto;html=1;entryX=0.5;entryY=1;entryDx=0;entryDy=0;" parent="1" source="fB5Ja7sIE4Y7Uw1ybMiM-59" target="fB5Ja7sIE4Y7Uw1ybMiM-54" edge="1">
          <mxGeometry relative="1" as="geometry">
            <mxPoint x="790" y="550" as="targetPoint" />
          </mxGeometry>
        </mxCell>
<<<<<<< HEAD
        <mxCell id="fB5Ja7sIE4Y7Uw1ybMiM-48" value="" style="edgeStyle=orthogonalEdgeStyle;rounded=0;orthogonalLoop=1;jettySize=auto;html=1;" parent="1" source="fB5Ja7sIE4Y7Uw1ybMiM-49" target="fB5Ja7sIE4Y7Uw1ybMiM-51" edge="1">
          <mxGeometry relative="1" as="geometry" />
=======
        <mxCell id="fB5Ja7sIE4Y7Uw1ybMiM-13" value="" style="edgeStyle=orthogonalEdgeStyle;rounded=0;orthogonalLoop=1;jettySize=auto;html=1;entryX=0.5;entryY=0;entryDx=0;entryDy=0;" parent="1" source="fB5Ja7sIE4Y7Uw1ybMiM-10" edge="1" target="fB5Ja7sIE4Y7Uw1ybMiM-42">
          <mxGeometry relative="1" as="geometry">
            <mxPoint x="390" y="390" as="targetPoint" />
          </mxGeometry>
>>>>>>> b406d7174e945c6b9ee83977bb2de9c40d8d7ac0
        </mxCell>
      </root>
    </mxGraphModel>
  </diagram>
</mxfile>
